<?xml version="1.0" standalone="no"?>
<!DOCTYPE svg PUBLIC "-//W3C//DTD SVG 20010904//EN"
 "http://www.w3.org/TR/2001/REC-SVG-20010904/DTD/svg10.dtd">
<svg version="1.0" xmlns="http://www.w3.org/2000/svg"
 width="280.000000pt" height="279.000000pt" viewBox="-50 -50 1380.000000 1379.000000"
 preserveAspectRatio="xMidYMid meet">
<g transform="translate(0.000000,1279.000000) scale(0.100000,-0.100000)"
fill="#00ee00" stroke="none">
<path d="M3570 12774 c-111 -30 -229 -97 -390 -223 -160 -124 -481 -452 -702
-716 -65 -78 -70 -82 -140 -103 -198 -58 -361 -228 -412 -428 -23 -89 -21
-224 5 -309 11 -39 27 -117 35 -175 76 -554 352 -961 795 -1175 l96 -46 -13
-48 c-88 -340 -82 -836 17 -1304 12 -54 19 -104 16 -111 -6 -16 -142 -74 -287
-122 -106 -36 -370 -104 -401 -104 -12 0 -23 16 -34 53 -44 134 -145 283 -302
442 -90 92 -260 237 -338 288 -29 19 -32 24 -27 62 6 57 -21 144 -61 197 -40
52 -122 96 -193 104 -111 13 -233 -57 -285 -163 -32 -67 -32 -169 0 -236 51
-104 176 -177 282 -163 27 4 55 9 62 12 15 5 111 -160 152 -263 35 -85 39
-171 11 -202 -11 -12 -38 -26 -60 -32 -78 -21 -195 1 -586 111 -79 22 -174 46
-210 52 -56 10 -71 17 -107 54 -67 68 -114 89 -208 89 -70 0 -87 -4 -133 -30
-59 -32 -91 -66 -125 -129 -31 -58 -31 -184 0 -241 76 -143 239 -199 379 -130
32 16 64 28 69 26 65 -23 196 -39 420 -51 322 -18 415 -38 477 -100 29 -29 38
-46 38 -71 0 -59 -49 -138 -155 -247 l-100 -103 -45 20 c-68 31 -170 29 -238
-5 -98 -49 -157 -144 -156 -254 1 -72 19 -123 63 -179 67 -85 202 -122 312
-86 100 34 189 154 189 256 0 19 6 32 18 35 9 4 79 32 154 64 308 131 534 291
645 458 26 39 39 52 51 47 10 -3 85 -26 168 -50 253 -73 515 -120 723 -128
l75 -2 43 -105 c63 -153 259 -543 354 -705 176 -301 391 -607 550 -783 328
-362 787 -641 1320 -802 368 -110 744 -165 1209 -177 308 -7 552 7 1005 58
537 61 647 69 965 76 268 5 511 -4 651 -23 l46 -6 6 -202 c5 -190 19 -323 52
-516 18 -105 18 -110 0 -110 -25 0 -179 -84 -243 -133 -135 -104 -318 -305
-435 -478 l-59 -86 -66 -5 c-108 -8 -187 -58 -237 -150 -26 -46 -29 -64 -30
-133 0 -91 19 -139 82 -201 79 -79 215 -103 315 -55 55 27 120 93 144 148 16
35 21 128 12 202 -3 20 12 33 109 91 159 96 275 131 334 100 72 -39 66 -203
-21 -550 -29 -116 -63 -272 -75 -345 -4 -27 -19 -53 -45 -80 -57 -59 -85 -126
-84 -205 2 -203 225 -341 403 -250 153 77 208 269 116 403 -24 36 -24 37 -9
104 9 44 18 172 24 358 5 160 14 317 20 350 16 85 49 146 92 169 31 17 40 18
81 7 62 -18 147 -75 239 -163 l78 -73 -21 -60 c-74 -212 129 -424 346 -360
110 32 205 156 205 270 0 141 -115 266 -258 281 l-59 7 -23 56 c-101 250 -295
544 -432 657 -26 22 -47 44 -47 50 -4 58 294 624 336 641 16 6 122 -51 247
-135 116 -77 204 -176 341 -382 165 -248 269 -495 314 -750 123 -679 -171
-1368 -870 -2045 -74 -71 -170 -157 -213 -189 -504 -379 -1231 -450 -1987
-195 -393 132 -746 340 -1008 594 -171 165 -276 322 -337 500 -24 70 -27 96
-27 205 -1 264 91 474 290 660 70 66 145 118 463 325 139 91 240 191 282 281
31 65 33 75 33 184 0 100 -4 126 -28 195 -63 183 -159 306 -291 370 -88 43
-169 59 -261 51 -533 -49 -1072 -712 -1234 -1521 -72 -358 -67 -664 14 -955
125 -445 455 -874 929 -1207 511 -359 1182 -612 1760 -663 438 -39 930 38
1372 215 609 244 1110 654 1479 1210 610 920 689 1907 239 2976 -103 246 -299
617 -424 804 -71 105 -183 237 -313 365 l-116 116 110 219 c196 391 239 467
257 459 74 -31 194 -66 277 -81 113 -20 511 -24 622 -6 l62 10 54 -52 c118
-115 290 -113 399 3 60 64 81 122 76 209 -9 158 -120 264 -277 265 -98 1 -186
-44 -231 -117 l-21 -33 -72 20 c-158 45 -304 117 -341 169 -31 45 -15 108 41
160 51 48 173 120 402 239 124 64 246 129 270 145 40 27 50 29 116 26 95 -4
158 23 220 91 157 174 48 449 -184 466 -75 5 -123 -7 -184 -45 -47 -29 -95
-95 -110 -150 -8 -31 -18 -45 -39 -54 -48 -20 -161 -102 -342 -251 -97 -78
-204 -160 -238 -181 -73 -44 -155 -71 -191 -62 -39 10 -77 57 -92 116 -16 57
-21 315 -7 335 4 5 23 16 42 24 196 76 254 316 112 463 -62 65 -104 82 -202
82 -96 0 -129 -13 -193 -74 -52 -48 -78 -103 -84 -172 -7 -78 1 -116 42 -183
l35 -58 -44 -92 c-131 -277 -200 -523 -201 -722 l0 -102 -90 -37 c-226 -95
-478 -233 -622 -342 -42 -32 -82 -62 -88 -67 -9 -7 -57 23 -156 96 -748 548
-1525 995 -2026 1168 -210 73 -566 154 -1158 265 -716 134 -841 168 -1344 366
-23 9 -23 10 26 62 132 140 301 383 403 582 34 66 63 121 65 123 1 1 31 -11
66 -28 200 -93 505 -106 891 -35 l127 23 35 -32 c141 -134 369 -94 451 79 87
185 -51 405 -255 405 -94 0 -201 -63 -244 -143 l-19 -34 -70 13 c-243 47 -377
115 -377 193 0 93 96 176 477 415 67 43 150 98 184 124 57 42 67 46 123 47
144 4 258 111 273 258 19 186 -163 342 -345 298 -99 -25 -194 -120 -208 -210
-6 -36 -14 -46 -73 -88 -36 -26 -154 -133 -261 -238 -107 -105 -214 -205 -236
-223 -50 -39 -140 -82 -172 -82 -92 0 -142 109 -157 342 l-7 106 45 20 c54 24
115 83 142 137 15 30 20 61 20 125 0 75 -3 91 -27 132 -60 101 -160 155 -272
146 -71 -6 -110 -24 -168 -76 -56 -50 -88 -121 -88 -196 0 -79 15 -124 62
-186 l39 -51 -36 -97 c-89 -244 -135 -465 -135 -651 0 -64 4 -133 9 -154 l9
-38 -116 -78 c-354 -235 -826 -506 -1031 -590 l-73 -31 -76 53 c-94 64 -265
232 -319 312 -45 67 -92 158 -124 238 -27 66 -109 301 -106 302 1 1 42 9 90
19 280 53 501 170 703 371 202 202 345 462 436 797 20 71 22 103 20 218 -5
229 -45 332 -184 474 -79 80 -96 105 -179 260 -253 472 -478 801 -673 983
-173 161 -302 208 -456 167z"/>
</g>
</svg>
